<svg width="180" height="180" viewBox="0 0 180 180" fill="none" xmlns="http://www.w3.org/2000/svg">
<path d="M25.928 114.4H33.368V127.84H47.144V114.4H54.584V148H47.144V134.08H33.368V148H25.928V114.4ZM62.204 114.4H69.644V135.376C69.644 136.784 69.932 138 70.508 139.024C71.084 140.016 71.868 140.768 72.86 141.28C73.884 141.76 75.068 142 76.412 142C77.788 142 78.988 141.76 80.012 141.28C81.068 140.768 81.884 140.016 82.46 139.024C83.036 138 83.324 136.784 83.324 135.376V114.4H90.764V134.8C90.764 137.072 90.364 139.056 89.564 140.752C88.796 142.448 87.724 143.856 86.348 144.976C85.004 146.096 83.468 146.944 81.74 147.52C80.012 148.064 78.204 148.336 76.316 148.336C73.788 148.336 71.452 147.84 69.308 146.848C67.164 145.856 65.436 144.368 64.124 142.384C62.844 140.368 62.204 137.84 62.204 134.8V114.4ZM117.737 125.056C117.737 123.68 117.321 122.592 116.489 121.792C115.689 120.992 114.425 120.592 112.697 120.592H105.833V129.568H112.697C113.849 129.568 114.793 129.392 115.529 129.04C116.265 128.688 116.809 128.176 117.161 127.504C117.545 126.8 117.737 125.984 117.737 125.056ZM113.081 114.4C115.801 114.4 118.057 114.896 119.849 115.888C121.673 116.848 123.033 118.144 123.929 119.776C124.825 121.376 125.273 123.136 125.273 125.056C125.273 126.368 125.033 127.664 124.553 128.944C124.105 130.192 123.385 131.344 122.393 132.4C121.433 133.424 120.169 134.24 118.601 134.848C117.065 135.456 115.225 135.76 113.081 135.76H105.833V148H98.393V114.4H113.081ZM116.969 133.216L125.945 148H117.689L109.193 133.216H116.969ZM130.842 131.2C130.842 128.704 131.258 126.416 132.09 124.336C132.954 122.224 134.138 120.4 135.642 118.864C137.146 117.328 138.938 116.144 141.018 115.312C143.098 114.48 145.354 114.064 147.786 114.064C151.402 114.064 154.554 114.944 157.242 116.704C159.93 118.464 161.882 120.928 163.098 124.096L156.762 125.68C156.154 124.4 155.386 123.376 154.458 122.608C153.53 121.808 152.506 121.232 151.386 120.88C150.266 120.496 149.082 120.304 147.834 120.304C145.914 120.304 144.234 120.784 142.794 121.744C141.354 122.672 140.234 123.952 139.434 125.584C138.666 127.216 138.282 129.088 138.282 131.2C138.282 133.344 138.666 135.232 139.434 136.864C140.234 138.496 141.354 139.776 142.794 140.704C144.234 141.632 145.914 142.096 147.834 142.096C149.114 142.096 150.33 141.904 151.482 141.52C152.666 141.136 153.738 140.496 154.698 139.6C155.69 138.704 156.522 137.504 157.194 136L163.434 137.44C162.154 140.992 160.154 143.696 157.434 145.552C154.714 147.408 151.498 148.336 147.786 148.336C145.354 148.336 143.098 147.92 141.018 147.088C138.938 146.256 137.146 145.088 135.642 143.584C134.138 142.048 132.954 140.24 132.09 138.16C131.258 136.048 130.842 133.728 130.842 131.2Z" fill="#005BA2"/>
<path d="M128.624 30.0194C101.491 17.0853 78.2937 16.2418 51.3009 30.0194L63.3914 42.391C84.2985 34.6132 95.9272 34.5865 116.533 42.391L128.624 30.0194Z" fill="#E83A27"/>
<path d="M8 102C10.9523 67.4155 19.9499 52.7945 44.5527 33.8152C45.34 33.8152 90.2436 79.2717 112.597 102H90.103L44.5527 56.4497C35.6957 61.7921 24.7299 80.6308 24.7299 102H8Z" fill="#005BA2"/>
<path d="M135.513 33.8152C160.407 53.6859 169.816 69.6649 171.925 102H155.335C154.07 82.3178 149.431 69.1026 135.513 56.3092L106.411 85.5513L94.8829 73.8826L135.513 33.8152Z" fill="#005BA2"/>
</svg>
